<?xml version="1.0" encoding="iso-8859-1"?>
<!-- Generator: Adobe Illustrator 19.0.0, SVG Export Plug-In . SVG Version: 6.00 Build 0)  -->
<svg version="1.1" id="Layer_1" xmlns="http://www.w3.org/2000/svg" xmlns:xlink="http://www.w3.org/1999/xlink" x="0px" y="0px"
	 viewBox="0 0 496 496" style="enable-background:new 0 0 496 496;" xml:space="preserve">
<g>
	<g>
		<g>
			<path d="M472,32h-72V0H100.688L0,100.688V496h400V192h72c13.232,0,24-10.768,24-24V56C496,42.768,485.232,32,472,32z M96,27.312
				V96H27.312L96,27.312z M384,480H16V112h96V16h272v16H184c-13.232,0-24,10.768-24,24v112c0,13.232,10.768,24,24,24h200V480z
				 M480,168c0,4.416-3.584,8-8,8H184c-4.416,0-8-3.584-8-8V56c0-4.416,3.584-8,8-8h288c4.416,0,8,3.584,8,8V168z"/>
			<rect x="32" y="128" width="16" height="16"/>
			<rect x="64" y="128" width="16" height="16"/>
			<rect x="32" y="160" width="16" height="16"/>
			<path d="M32,464h336V208H32V464z M48,224h304v224H48V224z"/>
			<polygon points="127.024,251.832 112.976,244.168 62.888,336 112.976,427.832 127.024,420.168 81.112,336 			"/>
			<polygon points="272.976,251.832 318.888,336 272.976,420.168 287.024,427.832 337.112,336 287.024,244.168 			"/>
			<path d="M263.448,344H288v-16h-24.552c-1.464-11.664-6.072-22.336-12.952-31.184l17.392-17.392l-11.312-11.312l-17.392,17.392
				c-8.848-6.88-19.52-11.488-31.184-12.952V248h-16v24.552c-11.664,1.464-22.336,6.072-31.184,12.952l-17.392-17.392
				l-11.312,11.312l17.392,17.392c-6.88,8.848-11.488,19.52-12.952,31.184H112v16h24.552c1.464,11.664,6.072,22.336,12.952,31.184
				l-17.392,17.392l11.312,11.312l17.392-17.392c8.848,6.88,19.52,11.488,31.184,12.952V424h16v-24.552
				c11.664-1.464,22.336-6.072,31.184-12.952l17.392,17.392l11.312-11.312l-17.392-17.392
				C257.376,366.336,261.984,355.664,263.448,344z M200,384c-26.472,0-48-21.528-48-48s21.528-48,48-48s48,21.528,48,48
				S226.472,384,200,384z"/>
			<path d="M200,304c-17.648,0-32,14.352-32,32s14.352,32,32,32s32-14.352,32-32S217.648,304,200,304z M200,352
				c-8.824,0-16-7.176-16-16c0-8.824,7.176-16,16-16c8.824,0,16,7.176,16,16C216,344.824,208.824,352,200,352z"/>
			<path d="M232,64c-22.056,0-40,17.944-40,40v56h16v-24h48v24h16v-56C272,81.944,254.056,64,232,64z M256,120h-48v-16
				c0-13.232,10.768-24,24-24s24,10.768,24,24V120z"/>
			<path d="M340,64h-24c-15.44,0-28,12.56-28,28s12.56,28,28,28h24c6.616,0,12,5.384,12,12c0,6.616-5.384,12-12,12h-24
				c-6.616,0-12-5.384-12-12v-4h-16v4c0,15.44,12.56,28,28,28h24c15.44,0,28-12.56,28-28s-12.56-28-28-28h-24
				c-6.616,0-12-5.384-12-12c0-6.616,5.384-12,12-12h24c6.616,0,12,5.384,12,12v4h16v-4C368,76.56,355.44,64,340,64z"/>
			<path d="M436,64h-52v48v8v40h16v-40h36c15.44,0,28-12.56,28-28S451.44,64,436,64z M436,104h-36V80h36c6.616,0,12,5.384,12,12
				C448,98.616,442.616,104,436,104z"/>
		</g>
	</g>
</g>
<g>
</g>
<g>
</g>
<g>
</g>
<g>
</g>
<g>
</g>
<g>
</g>
<g>
</g>
<g>
</g>
<g>
</g>
<g>
</g>
<g>
</g>
<g>
</g>
<g>
</g>
<g>
</g>
<g>
</g>
</svg>
