<svg id="Capa_1" enable-background="new 0 0 512 512" height="512" viewBox="0 0 512 512" width="512" xmlns="http://www.w3.org/2000/svg"><g><g><path d="m22.421 0v418.006l161.041 28.827 24.139-201.615-24.139-215.218-104.265-30z" fill="#f1f3f8"/><path d="m183.462 30v416.833l161.015-28.827v-418.006h-56.776z" fill="#dbe5f7"/></g><g><path d="m22.421 418.006v93.994h161.041l28.461-34.737-28.461-59.257z" fill="#c8d2e9"/><path d="m183.462 418.006h161.016v93.994h-161.016z" fill="#b0bee0"/></g><g><path d="m79.197 0 50 60h54.265l18.987-30-18.987-30z" fill="#c8d2e9"/><path d="m287.701 0h-104.239v60h54.239z" fill="#b0bee0"/></g><g><path d="m168.449 449.722v30h15.013l7.493-15-7.493-15z" fill="#b38efa"/><path d="m183.462 449.722h14.987v30h-14.987z" fill="#7673f9"/></g><g><g><path d="m321.702 92.53-11.144 26.596-5.081 1.751c-4.729 1.629-9.41 3.571-13.913 5.771l-6.239 3.049-22.714-15.363-41.265 41.181 15.404 22.877-2.979 6.198c-2.16 4.495-4.063 9.167-5.655 13.885l-1.739 5.157-27.003 11.219v45.562l27.004 11.22 1.739 5.157c1.563 4.635 3.431 9.23 5.548 13.658l2.966 6.204-15.452 22.846 41.181 41.265 22.749-15.319 6.232 3.062c4.574 2.247 9.33 4.226 14.137 5.882l5.081 1.751 11.144 26.596h22.774l25.861-132.21-25.861-157.995z" fill="#6ce0e1"/></g><path d="m462.941 276.313 1.685-5.11 24.954-10.825v-45.495l-24.954-10.825-1.685-5.111c-1.77-5.366-3.932-10.661-6.429-15.738l-3.073-6.25 14.336-21.195-41.181-41.264-21.666 14.59-6.185-2.949c-4.941-2.356-10.083-4.398-15.282-6.068l-5.226-1.679-10.995-25.864h-22.763v290.204h22.763l10.995-25.865 5.225-1.679c5.12-1.646 10.185-3.651 15.054-5.96l6.19-2.936 21.639 14.635 41.265-41.18-14.294-21.228 3.087-6.244c2.544-5.147 4.744-10.517 6.54-15.964z" fill="#52b9d1"/><g><path d="m276.89 237.632c0 37.533 30.209 68.124 67.587 68.784l16.532-68.784-16.532-68.784c-37.378.659-67.587 31.25-67.587 68.784z" fill="#52b9d1"/><path d="m345.705 168.816c-.412 0-.818.024-1.228.031v137.569c.41.007.816.031 1.228.031 37.945 0 68.815-30.87 68.815-68.815s-30.87-68.816-68.815-68.816z" fill="#3a8fc2"/></g></g></g></svg>