<svg id="Capa_1" enable-background="new 0 0 512 512" height="512" viewBox="0 0 512 512" width="512" xmlns="http://www.w3.org/2000/svg"><g><g><g><path d="m512 117.593h-512v-64.52c0-11.495 9.318-20.813 20.813-20.813h470.374c11.495 0 20.813 9.318 20.813 20.813z" fill="#80b4fb"/></g><g><path d="m491.187 32.26h-31.22c11.495 0 20.813 9.318 20.813 20.813v64.52h31.22v-64.52c0-11.495-9.318-20.813-20.813-20.813z" fill="#61a2f9"/></g><g><path d="m0 117.593h512v341.333c0 11.495-9.318 20.813-20.813 20.813h-470.374c-11.495.001-20.813-9.317-20.813-20.812z" fill="#e4f6ff"/></g><g><path d="m480.78 117.593v341.333c0 11.495-9.318 20.813-20.813 20.813h31.22c11.495 0 20.813-9.318 20.813-20.813v-341.333z" fill="#b9e4ef"/></g></g><g><path d="m89.496 440.258v-20.939c0-3.414 2.767-6.181 6.181-6.181h320.646c3.414 0 6.181 2.767 6.181 6.181v20.939c0 3.414-2.767 6.181-6.181 6.181h-320.646c-3.414 0-6.181-2.767-6.181-6.181z" fill="#e278b1"/></g><g><g><path d="m455.8 251.837c0-2.433-.125-4.837-.362-7.208-.304-3.04.769-6.055 2.915-8.23l14.83-15.027c3.258-3.301 3.908-8.371 1.589-12.387l-8.799-15.241c-2.319-4.016-7.035-5.988-11.523-4.817l-20.547 5.361c-2.936.766-6.032.119-8.498-1.65-3.889-2.791-8.064-5.207-12.473-7.199-2.778-1.255-4.844-3.693-5.652-6.632l-5.595-20.344c-1.23-4.472-5.296-7.57-9.933-7.57h-17.598c-4.638 0-8.703 3.099-9.933 7.57l-5.595 20.344c-.808 2.939-2.874 5.377-5.652 6.632-4.409 1.992-8.585 4.408-12.473 7.199-2.465 1.77-5.561 2.416-8.498 1.65l-20.547-5.361c-4.487-1.171-9.204.801-11.523 4.817l-8.799 15.241c-2.319 4.016-1.668 9.087 1.589 12.387l14.83 15.027c2.146 2.175 3.22 5.189 2.915 8.23-.237 2.371-.362 4.774-.362 7.208s.125 4.837.362 7.208c.304 3.04-.769 6.055-2.915 8.229l-14.83 15.027c-3.258 3.301-3.908 8.371-1.589 12.387l8.799 15.241c2.319 4.016 7.035 5.988 11.523 4.817l20.547-5.361c2.936-.766 6.032-.119 8.498 1.65 3.889 2.791 8.064 5.207 12.473 7.199 2.778 1.255 4.844 3.693 5.652 6.632l5.595 20.344c1.23 4.472 5.296 7.57 9.933 7.57h17.598c4.638 0 8.703-3.099 9.933-7.57l5.595-20.344c.808-2.939 2.874-5.377 5.652-6.632 4.409-1.992 8.585-4.408 12.473-7.199 2.465-1.77 5.561-2.416 8.498-1.65l20.547 5.361c4.487 1.171 9.204-.801 11.523-4.817l8.799-15.241c2.319-4.016 1.668-9.087-1.589-12.387l-14.83-15.027c-2.146-2.175-3.22-5.189-2.915-8.229.238-2.371.362-4.774.362-7.208zm-72.845 16.651c-9.196 0-16.65-7.455-16.65-16.65 0-9.196 7.455-16.65 16.65-16.65 9.196 0 16.65 7.455 16.65 16.65s-7.454 16.65-16.65 16.65z" fill="#ffe07d"/></g><g><path d="m455.8 251.837c0-2.433-.125-4.837-.362-7.208-.304-3.04.769-6.055 2.915-8.23l14.83-15.027c3.258-3.301 3.908-8.371 1.589-12.387l-8.799-15.241c-2.319-4.016-7.035-5.988-11.523-4.817l-5.764 1.504c.569 4.258.869 8.601.869 13.015 0 53.738-43.563 97.301-97.301 97.301-21.945 0-42.191-7.267-58.468-19.523l-1.062 1.076c-3.258 3.301-3.908 8.371-1.59 12.387l8.799 15.241c2.319 4.016 7.035 5.988 11.523 4.817l20.547-5.361c2.936-.766 6.032-.119 8.498 1.65 3.889 2.791 8.064 5.207 12.473 7.199 2.778 1.255 4.844 3.693 5.652 6.632l5.595 20.344c1.23 4.472 5.296 7.57 9.933 7.57h17.598c4.638 0 8.703-3.099 9.933-7.57l5.595-20.344c.808-2.939 2.874-5.377 5.652-6.632 4.409-1.992 8.585-4.408 12.473-7.199 2.465-1.77 5.561-2.416 8.498-1.65l20.547 5.361c4.487 1.171 9.204-.801 11.523-4.817l8.799-15.241c2.319-4.016 1.668-9.087-1.589-12.387l-14.83-15.027c-2.146-2.175-3.22-5.189-2.915-8.229.238-2.37.362-4.773.362-7.207z" fill="#ffd064"/></g></g><g><circle cx="444.358" cy="74.927" fill="#a2f4c1" r="12.488"/></g><g><circle cx="401.691" cy="74.927" fill="#ffe07d" r="12.488"/></g><g><circle cx="359.024" cy="74.927" fill="#e278b1" r="12.488"/></g><g><g><path d="m116.553 191.922h-29.139c-4.268 0-7.726-3.459-7.726-7.726s3.459-7.726 7.726-7.726h29.139c4.268 0 7.726 3.459 7.726 7.726s-3.458 7.726-7.726 7.726z" fill="#e278b1"/></g><g><path d="m253.919 191.922h-104.065c-4.268 0-7.726-3.459-7.726-7.726s3.459-7.726 7.726-7.726h104.064c4.268 0 7.726 3.459 7.726 7.726s-3.458 7.726-7.725 7.726z" fill="#9bb9c1"/></g></g><g><g><path d="m192.52 231.05h-87.414c-4.268 0-7.726-3.459-7.726-7.726s3.459-7.726 7.726-7.726h87.414c4.268 0 7.726 3.459 7.726 7.726s-3.458 7.726-7.726 7.726z" fill="#ffe07d"/></g><g><path d="m71.805 231.05h-38.504c-4.268 0-7.726-3.459-7.726-7.726s3.459-7.726 7.726-7.726h38.504c4.268 0 7.726 3.459 7.726 7.726s-3.459 7.726-7.726 7.726z" fill="#e278b1"/></g><g><path d="m253.919 231.05h-28.098c-4.268 0-7.726-3.459-7.726-7.726s3.459-7.726 7.726-7.726h28.098c4.268 0 7.726 3.459 7.726 7.726s-3.459 7.726-7.726 7.726z" fill="#9bb9c1"/></g></g><g><g><path d="m171.707 270.178h-66.602c-4.268 0-7.726-3.459-7.726-7.726s3.459-7.726 7.726-7.726h66.602c4.268 0 7.726 3.459 7.726 7.726s-3.458 7.726-7.726 7.726z" fill="#9bb9c1"/></g><g><path d="m71.805 270.178h-38.504c-4.268 0-7.726-3.459-7.726-7.726s3.459-7.726 7.726-7.726h38.504c4.268 0 7.726 3.459 7.726 7.726s-3.459 7.726-7.726 7.726z" fill="#e278b1"/></g><g><path d="m253.919 270.178h-48.91c-4.268 0-7.726-3.459-7.726-7.726s3.459-7.726 7.726-7.726h48.91c4.268 0 7.726 3.459 7.726 7.726s-3.459 7.726-7.726 7.726z" fill="#ffe07d"/></g></g><g><g><path d="m150.894 348.436h-45.789c-4.268 0-7.726-3.459-7.726-7.726s3.459-7.726 7.726-7.726h45.789c4.268 0 7.726 3.459 7.726 7.726s-3.458 7.726-7.726 7.726z" fill="#ffe07d"/></g><g><path d="m71.805 348.436h-38.504c-4.268 0-7.726-3.459-7.726-7.726s3.459-7.726 7.726-7.726h38.504c4.268 0 7.726 3.459 7.726 7.726s-3.459 7.726-7.726 7.726z" fill="#e278b1"/></g></g><g><g><path d="m150.894 309.307h-45.789c-4.268 0-7.726-3.459-7.726-7.726 0-4.268 3.459-7.726 7.726-7.726h45.789c4.268 0 7.726 3.459 7.726 7.726.001 4.267-3.458 7.726-7.726 7.726z" fill="#ffe07d"/></g><g><path d="m71.805 309.307h-38.504c-4.268 0-7.726-3.459-7.726-7.726 0-4.268 3.459-7.726 7.726-7.726h38.504c4.268 0 7.726 3.459 7.726 7.726s-3.459 7.726-7.726 7.726z" fill="#e278b1"/></g><g><path d="m253.919 309.307h-69.723c-4.268 0-7.726-3.459-7.726-7.726 0-4.268 3.459-7.726 7.726-7.726h69.723c4.268 0 7.726 3.459 7.726 7.726s-3.459 7.726-7.726 7.726z" fill="#9bb9c1"/></g></g><g><path d="m54.109 191.922c-1.693 0-3.396-.553-4.822-1.693l-20.813-16.651c-1.833-1.466-2.899-3.686-2.899-6.033s1.067-4.567 2.899-6.033l20.813-16.65c3.333-2.667 8.194-2.125 10.86 1.206 2.666 3.333 2.126 8.194-1.206 10.86l-13.272 10.617 13.272 10.618c3.332 2.666 3.872 7.528 1.206 10.86-1.526 1.907-3.772 2.899-6.038 2.899z" fill="#80b4fb"/></g><g><g><path d="m219.577 387.563h-114.471c-4.268 0-7.726-3.459-7.726-7.726s3.459-7.726 7.726-7.726h114.472c4.268 0 7.726 3.459 7.726 7.726s-3.459 7.726-7.727 7.726z" fill="#9bb9c1"/></g><g><path d="m71.805 387.563h-38.504c-4.268 0-7.726-3.459-7.726-7.726s3.459-7.726 7.726-7.726h38.504c4.268 0 7.726 3.459 7.726 7.726s-3.459 7.726-7.726 7.726z" fill="#e278b1"/></g></g><g><path d="m253.924 387.563c-2.267 0-4.512-.992-6.038-2.899-2.666-3.333-2.126-8.194 1.206-10.86l13.272-10.617-13.272-10.618c-3.332-2.666-3.872-7.528-1.206-10.86 2.665-3.332 7.526-3.873 10.86-1.206l20.813 16.651c1.833 1.466 2.899 3.686 2.899 6.033s-1.067 4.567-2.899 6.033l-20.813 16.65c-1.425 1.14-3.13 1.693-4.822 1.693z" fill="#80b4fb"/></g></g></svg>