<?xml version="1.0" encoding="iso-8859-1"?>
<!-- Generator: Adobe Illustrator 19.0.0, SVG Export Plug-In . SVG Version: 6.00 Build 0)  -->
<svg version="1.1" id="Capa_1" xmlns="http://www.w3.org/2000/svg" xmlns:xlink="http://www.w3.org/1999/xlink" x="0px" y="0px"
	 viewBox="0 0 512 512" style="enable-background:new 0 0 512 512;" xml:space="preserve">
<polygon style="fill:#8CCEEA;" points="198.93,10 198.93,46.621 256,103.691 313.07,46.621 313.07,10 "/>
<polygon style="fill:#657FC9;" points="235.131,88 154.289,400.289 256,502 357.711,400.289 276.869,88 "/>
<g>
	<polygon style="fill:#8CCEEA;" points="194.413,253.913 292.663,155.663 309.912,220.088 163.423,366.577 	"/>
	<polygon style="fill:#8CCEEA;" points="221.164,467.163 343.384,344.943 327.82,284.82 183.32,429.32 	"/>
</g>
<path d="M367.393,397.782L286.918,86.916l33.224-33.224c1.875-1.875,2.929-4.419,2.929-7.071V10c0-5.523-4.478-10-10-10H198.93
	c-5.522,0-10,4.477-10,10v36.621c0,2.652,1.054,5.196,2.929,7.071l33.224,33.224l-80.475,310.867
	c-0.888,3.43,0.104,7.073,2.609,9.578l101.712,101.711C250.882,511.024,253.44,512,256,512s5.118-0.976,7.071-2.929L364.783,407.36
	C367.288,404.855,368.28,401.212,367.393,397.782z M208.93,20h94.141v22.479L256,89.549l-47.07-47.07V20z M248.929,110.762
	c1.953,1.953,4.512,2.929,7.071,2.929c2.559,0,5.118-0.976,7.071-2.929l7.436-7.436l12.41,47.94l-72.639,72.64l31.214-120.579
	L248.929,110.762z M200.449,261.873c0.358-0.272,0.708-0.562,1.035-0.889l87.25-87.25l10.979,42.41l-73.451,73.451
	c-3.905,3.905-3.905,10.237,0,14.143c1.953,1.953,4.512,2.929,7.071,2.929s5.119-0.977,7.071-2.929l65.125-65.125l11.162,43.118
	c-0.233,0.194-0.461,0.396-0.68,0.614L183.25,415.108l-17.848-17.848L200.449,261.873z M256,487.858L235.142,467l63.429-63.429
	c3.905-3.905,3.905-10.237,0-14.143c-3.906-3.905-10.236-3.905-14.143,0L221,452.858l-23.607-23.607l125.102-125.103l24.104,93.113
	L256,487.858z"/>
<path d="M315.67,362.33c-2.641,0-5.22,1.07-7.07,2.93c-1.87,1.86-2.93,4.44-2.93,7.07c0,2.64,1.06,5.21,2.93,7.07
	c1.86,1.87,4.43,2.93,7.07,2.93c2.63,0,5.21-1.06,7.07-2.93c1.859-1.86,2.93-4.43,2.93-7.07c0-2.63-1.07-5.21-2.93-7.07
	C320.88,363.4,318.3,362.33,315.67,362.33z"/>
<path d="M197.8,332.19c1.86,1.87,4.44,2.93,7.07,2.93c2.64,0,5.21-1.06,7.08-2.93c1.859-1.86,2.93-4.43,2.93-7.06
	c0-2.64-1.07-5.21-2.93-7.08c-1.87-1.86-4.44-2.93-7.08-2.93c-2.63,0-5.2,1.07-7.07,2.93c-1.86,1.87-2.92,4.44-2.92,7.08
	C194.88,327.76,195.939,330.33,197.8,332.19z"/>
<g>
</g>
<g>
</g>
<g>
</g>
<g>
</g>
<g>
</g>
<g>
</g>
<g>
</g>
<g>
</g>
<g>
</g>
<g>
</g>
<g>
</g>
<g>
</g>
<g>
</g>
<g>
</g>
<g>
</g>
</svg>
